<svg width="16" height="16" viewBox="0 0 16 16" fill="none" xmlns="http://www.w3.org/2000/svg">
<g clip-path="url(#clip0_83_2)">
<path fill-rule="evenodd" clip-rule="evenodd" d="M4 2C4 0.9 4.9 0 6 0H14C15.1 0 16 0.9 16 2V10C16 11.1 15.1 12 14 12H6C4.9 12 4 11.1 4 10V2ZM6 1C5.45 1 5 1.45 5 2V10C5 10.55 5.45 11 6 11H14C14.55 11 15 10.55 15 10V2C15 1.45 14.55 1 14 1H6ZM2 5C1.45 5 1 5.45 1 6V14C1 14.55 1.45 15 2 15H10C10.55 15 11 14.55 11 14V13H12V14C12 15.1 11.1 16 10 16H2C0.9 16 0 15.1 0 14V6C0 4.9 0.9 4 2 4H3V5H2Z" fill="white"/>
</g>
<defs>
<clipPath id="clip0_83_2">
<rect width="16" height="16" fill="white"/>
</clipPath>
</defs>
</svg>
